<?xml version="1.0" encoding="iso-8859-1"?>
<!-- Generator: Adobe Illustrator 19.0.0, SVG Export Plug-In . SVG Version: 6.00 Build 0)  -->
<svg version="1.1" id="Capa_1" xmlns="http://www.w3.org/2000/svg" xmlns:xlink="http://www.w3.org/1999/xlink" x="0px" y="0px"
	 viewBox="0 0 512 512" style="enable-background:new 0 0 512 512;" xml:space="preserve">
<g>
	<g>
		<path d="M290.133,247.467h-68.267c-4.702,0-8.533,3.823-8.533,8.533c0,4.71,3.831,8.533,8.533,8.533h68.267
			c4.702,0,8.533-3.823,8.533-8.533C298.667,251.29,294.835,247.467,290.133,247.467z"/>
	</g>
</g>
<g>
	<g>
		<path d="M314.257,264.542c-0.102,0.29-0.256,0.546-0.367,0.828c-0.188,0.478-0.401,0.93-0.614,1.391
			c-0.444,0.956-0.939,1.869-1.493,2.748c-0.256,0.418-0.512,0.836-0.794,1.237c-0.717,1.016-1.51,1.963-2.364,2.859
			c-0.179,0.188-0.324,0.401-0.512,0.58c-1.058,1.05-2.21,1.988-3.439,2.842c-0.341,0.239-0.708,0.427-1.067,0.648
			c-0.93,0.58-1.886,1.109-2.893,1.57c-0.469,0.213-0.939,0.41-1.425,0.589c-0.998,0.384-2.022,0.7-3.081,0.956
			c-0.469,0.111-0.922,0.247-1.399,0.341c-1.527,0.29-3.089,0.478-4.702,0.478h-68.267c-1.604,0-3.174-0.188-4.702-0.478
			c-0.478-0.085-0.93-0.222-1.399-0.341c-1.058-0.265-2.082-0.572-3.081-0.956c-0.486-0.188-0.947-0.375-1.417-0.589
			c-1.007-0.461-1.963-0.99-2.893-1.57c-0.358-0.222-0.717-0.41-1.067-0.648c-1.229-0.853-2.381-1.792-3.439-2.842
			c-0.188-0.179-0.333-0.393-0.512-0.58c-0.853-0.896-1.638-1.843-2.364-2.859c-0.282-0.401-0.529-0.819-0.794-1.237
			c-0.555-0.887-1.05-1.801-1.493-2.756c-0.213-0.461-0.427-0.913-0.614-1.382c-0.111-0.282-0.265-0.546-0.367-0.828h-35.593v85.325
			h0.026h35.593c0.102-0.29,0.256-0.546,0.367-0.828c0.188-0.469,0.401-0.93,0.614-1.382c0.444-0.956,0.939-1.869,1.493-2.756
			c0.265-0.418,0.512-0.836,0.794-1.237c0.717-1.015,1.51-1.963,2.364-2.859c0.179-0.188,0.324-0.401,0.512-0.58
			c1.058-1.05,2.21-1.988,3.439-2.842c0.341-0.239,0.708-0.427,1.067-0.649c0.93-0.58,1.886-1.109,2.884-1.57
			c0.469-0.213,0.939-0.41,1.425-0.589c0.998-0.384,2.022-0.7,3.072-0.956c0.469-0.111,0.922-0.247,1.399-0.341
			c1.527-0.282,3.089-0.478,4.702-0.478h68.267c1.613,0,3.174,0.188,4.702,0.478c0.478,0.085,0.93,0.222,1.399,0.341
			c1.058,0.265,2.082,0.572,3.072,0.956c0.486,0.188,0.956,0.384,1.425,0.597c1.007,0.461,1.954,0.99,2.884,1.57
			c0.358,0.222,0.717,0.41,1.067,0.649c1.229,0.853,2.381,1.792,3.439,2.842c0.179,0.179,0.333,0.393,0.512,0.58
			c0.853,0.896,1.647,1.852,2.364,2.859c0.282,0.401,0.529,0.819,0.794,1.237c0.555,0.879,1.05,1.792,1.493,2.748
			c0.213,0.461,0.427,0.913,0.614,1.391c0.111,0.282,0.265,0.538,0.367,0.828h35.593v-85.333H314.257z"/>
	</g>
</g>
<g>
	<g>
		<circle cx="179.2" cy="85.325" r="25.6"/>
	</g>
</g>
<g>
	<g>
		<path d="M290.133,349.867h-68.267c-4.702,0-8.533,3.823-8.533,8.533s3.831,8.533,8.533,8.533h68.267
			c4.702,0,8.533-3.823,8.533-8.533S294.835,349.867,290.133,349.867z"/>
	</g>
</g>
<g>
	<g>
		<path d="M314.283,366.933c-0.111,0.282-0.265,0.546-0.384,0.828c-0.188,0.478-0.401,0.93-0.614,1.391
			c-0.444,0.956-0.939,1.869-1.493,2.748c-0.256,0.418-0.512,0.836-0.794,1.237c-0.717,1.016-1.51,1.963-2.364,2.859
			c-0.179,0.188-0.324,0.401-0.512,0.58c-1.058,1.05-2.21,1.988-3.439,2.842c-0.341,0.239-0.708,0.427-1.067,0.648
			c-0.93,0.58-1.886,1.109-2.893,1.57c-0.469,0.213-0.939,0.401-1.425,0.589c-0.998,0.384-2.022,0.7-3.081,0.956
			c-0.469,0.111-0.922,0.247-1.399,0.341c-1.527,0.282-3.089,0.478-4.702,0.478H221.85c-1.604,0-3.174-0.188-4.702-0.478
			c-0.478-0.085-0.93-0.222-1.399-0.341c-1.058-0.265-2.082-0.572-3.081-0.956c-0.486-0.188-0.947-0.375-1.417-0.589
			c-1.007-0.461-1.963-0.99-2.893-1.57c-0.358-0.222-0.717-0.41-1.067-0.648c-1.229-0.853-2.381-1.792-3.439-2.842
			c-0.188-0.179-0.333-0.393-0.512-0.58c-0.853-0.896-1.638-1.852-2.364-2.859c-0.282-0.401-0.529-0.819-0.794-1.237
			c-0.555-0.887-1.05-1.801-1.493-2.756c-0.213-0.461-0.427-0.913-0.614-1.382c-0.111-0.282-0.265-0.538-0.367-0.828h-35.567v25.6
			c0,32.93,26.795,59.733,59.733,59.733h68.267c32.939,0,59.733-26.803,59.733-59.733v-25.6H314.283z"/>
	</g>
</g>
<g>
	<g>
		<path d="M324.267,0H187.733c-51.755,0-93.867,42.112-93.867,93.867v324.267c0,51.755,42.112,93.867,93.867,93.867h136.533
			c51.755,0,93.867-42.112,93.867-93.867V93.867C418.133,42.112,376.021,0,324.267,0z M179.2,42.667
			c23.526,0,42.667,19.14,42.667,42.667c0,23.526-19.14,42.667-42.667,42.667c-23.526,0-42.667-19.14-42.667-42.667
			C136.533,61.807,155.674,42.667,179.2,42.667z M366.933,256v102.4v34.133c0,42.351-34.458,76.8-76.8,76.8h-68.267
			c-42.342,0-76.8-34.449-76.8-76.8V358.4V256v-34.133c0-42.351,34.458-76.8,76.8-76.8h68.267c42.342,0,76.8,34.449,76.8,76.8V256z"
			/>
	</g>
</g>
<g>
	<g>
		<path d="M290.133,162.133h-68.267c-32.939,0-59.733,26.803-59.733,59.733v25.6h35.593c0.102-0.29,0.256-0.546,0.367-0.828
			c0.188-0.478,0.401-0.93,0.614-1.382c0.444-0.956,0.939-1.869,1.493-2.748c0.265-0.418,0.512-0.836,0.794-1.237
			c0.717-1.015,1.51-1.963,2.364-2.859c0.179-0.188,0.324-0.401,0.512-0.58c1.058-1.05,2.21-1.988,3.439-2.842
			c0.341-0.239,0.708-0.427,1.067-0.648c0.93-0.58,1.886-1.109,2.884-1.57c0.469-0.213,0.939-0.41,1.425-0.597
			c0.998-0.384,2.022-0.7,3.072-0.956c0.469-0.111,0.922-0.247,1.399-0.341c1.527-0.29,3.089-0.478,4.702-0.478h68.267
			c1.613,0,3.174,0.188,4.702,0.478c0.478,0.085,0.93,0.222,1.399,0.341c1.058,0.256,2.082,0.572,3.072,0.956
			c0.486,0.188,0.956,0.375,1.425,0.597c1.007,0.461,1.954,0.99,2.884,1.57c0.358,0.222,0.717,0.41,1.067,0.648
			c1.229,0.853,2.381,1.792,3.439,2.842c0.179,0.179,0.333,0.393,0.512,0.58c0.853,0.896,1.647,1.843,2.364,2.859
			c0.282,0.401,0.529,0.819,0.794,1.237c0.555,0.879,1.05,1.792,1.493,2.748c0.213,0.461,0.427,0.913,0.614,1.391
			c0.111,0.282,0.265,0.538,0.367,0.828h35.593v-25.6C349.867,188.937,323.072,162.133,290.133,162.133z"/>
	</g>
</g>
<g>
</g>
<g>
</g>
<g>
</g>
<g>
</g>
<g>
</g>
<g>
</g>
<g>
</g>
<g>
</g>
<g>
</g>
<g>
</g>
<g>
</g>
<g>
</g>
<g>
</g>
<g>
</g>
<g>
</g>
</svg>
