<svg id="Layer_1" data-name="Layer 1" xmlns="http://www.w3.org/2000/svg" viewBox="0 0 430.86 402.56"><path d="M479,427.24c-2.11,6.31-4.6,12.57-10.59,16.08-3.76,2.21-8.14,4.4-12.35,4.65-11,.64-22.12.22-33.87.22v-4.92c0-34.22-.14-68.44.08-102.66a77.33,77.33,0,0,0-8-35.24c-15.44-31.57-30.54-63.31-45.72-95-7.9-16.5-21.06-24.55-39.2-24.56q-65.83-.07-131.69,0c-18.22,0-31.3,8.39-39.17,24.72-15.39,31.91-30.53,63.94-46,95.8a73.66,73.66,0,0,0-7.56,33.23c.17,34.5.06,69,.06,103.51v5c-12.34,0-24.3.88-36.07-.25-11.28-1.09-19.26-10.9-20.53-22.44a54.84,54.84,0,0,1-.2-5.88q0-98,0-196.07a124.9,124.9,0,0,1,1.14-17.61c1.35-9.44,6.32-17,13.76-22.83q54.66-43.12,109.35-86.19c14.86-11.72,29.7-23.47,44.63-35.1a74.5,74.5,0,0,1,92,.06c50.72,39.84,101.28,79.89,152,119.68,10.5,8.24,16.34,18.56,17.12,31.83a23.16,23.16,0,0,0,.78,3.64Z" transform="translate(-48.14 -45.78)"/><path d="M376.52,304q-17.65-36.45-35.37-72.89c-4.14-8.47-11.13-12.71-20.58-12.71q-58.23,0-116.46,0a26.38,26.38,0,0,0-2.94.19c-6.47.74-11.76,3.56-15.33,9.12a78.9,78.9,0,0,0-4.72,8.41q-15.57,32.58-31,65.21c-.56,1.18-1,2.4-1.67,3.93H376.71A6.69,6.69,0,0,0,376.52,304Z" transform="translate(-48.14 -45.78)"/><path d="M158.61,411.6v36H366.26v-36Z" transform="translate(-48.14 -45.78)"/><path d="M154.91,332.36c-13.58.44-24.67,12-24.16,25.09.53,13.61,12,24.46,25.26,23.88,14-.6,24.24-11.53,23.68-25.19S168.18,331.94,154.91,332.36Z" transform="translate(-48.14 -45.78)"/><path d="M369.4,381.37a24.51,24.51,0,0,0,.28-49,24.51,24.51,0,0,0-.28,49Z" transform="translate(-48.14 -45.78)"/></svg>