<svg height="512pt" viewBox="0 0 512 512.00031" width="512pt" xmlns="http://www.w3.org/2000/svg"><path d="m498.820312 176.609375-163.417968-163.417969c-19.414063-19.414062-51.28125-17.015625-67.722656 4.65625l-97.855469 128.550782c-13.492188 17.816406-11.75 43.171874 4.058593 58.976562l132.742188 132.746094c15.804688 15.804687 41.136719 17.546875 58.976562 4.070312l128.558594-97.863281c21.855469-16.574219 23.894532-48.515625 4.660156-67.71875zm-70.050781 39.507813-52.007812 37.859374c-5.972657 4.273438-14.140625 3.585938-19.320313-1.59375l-97.824218-97.824218c-5.183594-5.183594-5.859376-13.359375-1.597657-19.320313l37.875-51.996093c5.542969-7.765626 16.527344-8.167969 22.808594-1.890626l111.957031 111.957032c6.535156 6.535156 5.683594 17.398437-1.890625 22.808594zm0 0"/><path d="m15 512h84.859375c3.984375 0 7.792969-1.582031 10.605469-4.394531l161.605468-161.617188-106.058593-106.0625-34.335938 34.332031c-2.816406 2.8125-4.398437 6.621094-4.398437 10.601563 0 3.984375 1.582031 7.796875 4.398437 10.605469l4.054688 4.058594-40.617188 13.550781c-4.484375 1.492187-8 4.996093-9.480469 9.476562l-18.851562 56.515625-56.527344 18.851563c-6.121094 2.035156-10.253906 7.765625-10.253906 14.222656v84.859375c0 8.292969 6.710938 15 15 15zm0 0"/></svg>